<?xml version="1.0" standalone="no"?>
<!DOCTYPE svg PUBLIC "-//W3C//DTD SVG 20010904//EN"
 "http://www.w3.org/TR/2001/REC-SVG-20010904/DTD/svg10.dtd">
<svg version="1.0" xmlns="http://www.w3.org/2000/svg"
 width="1920.000000pt" height="1920.000000pt" viewBox="0 0 1920.000000 1920.000000"
 preserveAspectRatio="xMidYMid meet">
<metadata>
Created by potrace 1.14, written by Peter Selinger 2001-2017
</metadata>
<g transform="translate(0.000000,1920.000000) scale(0.100000,-0.100000)"
fill="#000000" stroke="none">
<path d="M9895 13676 c-22 -12 -87 -44 -145 -70 -58 -27 -157 -74 -220 -104
-161 -76 -442 -208 -520 -244 -86 -39 -302 -148 -315 -158 -5 -4 -50 -29 -100
-56 -49 -26 -134 -74 -188 -106 -55 -32 -100 -58 -102 -58 -12 0 -1025 -598
-1025 -605 0 -1 24 -54 53 -116 30 -63 80 -171 112 -241 32 -71 61 -128 65
-128 4 0 38 30 77 68 360 344 442 423 482 461 25 24 82 78 126 120 44 42 107
97 140 121 33 25 66 50 75 57 8 7 123 94 255 194 132 100 312 236 400 303 148
112 192 144 237 171 62 37 281 174 433 271 99 63 188 117 198 120 9 4 17 10
17 15 0 13 -9 10 -55 -15z"/>
<path d="M10107 13522 c-31 -20 -183 -115 -337 -211 l-281 -173 22 -37 c12
-20 68 -117 124 -216 187 -330 236 -422 428 -805 201 -402 277 -563 472 -995
11 -25 197 -455 224 -520 33 -78 66 -156 106 -255 25 -63 52 -128 60 -145 7
-16 43 -106 80 -200 37 -93 71 -179 76 -190 21 -46 209 -543 311 -820 127
-345 202 -557 372 -1060 68 -198 125 -367 129 -375 6 -14 1 104 -8 200 -2 25
-7 77 -10 115 -11 131 -13 160 -20 230 -3 39 -8 81 -10 95 -2 14 -6 43 -9 65
-3 22 -8 63 -11 90 -3 28 -7 61 -9 75 -3 14 -8 48 -11 75 -11 85 -13 97 -30
210 -10 61 -18 119 -20 130 -8 58 -59 336 -81 440 -13 66 -26 129 -28 140 -2
11 -14 65 -26 120 -12 55 -23 110 -26 123 -9 43 -112 467 -139 567 -164 623
-409 1362 -669 2020 -95 243 -217 532 -278 665 -17 36 -45 99 -63 140 -95 219
-255 540 -269 539 -6 0 -37 -17 -69 -37z"/>
<path d="M9150 12883 c-160 -102 -237 -157 -375 -267 -55 -44 -102 -83 -105
-86 -3 -3 -54 -48 -114 -100 -60 -52 -124 -108 -141 -125 -17 -16 -94 -89
-171 -162 -237 -224 -596 -590 -900 -920 -229 -247 -324 -355 -324 -367 0 -7
69 -97 265 -344 l89 -114 15 34 c73 168 208 404 354 623 70 103 255 370 279
400 4 6 78 105 164 220 158 211 215 286 224 295 3 3 54 68 114 145 129 164
404 503 456 560 20 22 65 72 101 110 35 39 67 72 71 73 8 4 32 43 26 41 -2 0
-14 -7 -28 -16z"/>
<path d="M8427 11618 c-215 -376 -575 -1120 -777 -1608 -166 -401 -334 -893
-375 -1101 -2 -9 -8 -34 -14 -55 -22 -78 -29 -70 222 -237 127 -84 252 -165
277 -180 l45 -26 191 152 c105 84 258 205 340 269 82 65 160 126 174 137 116
92 151 119 180 141 18 14 56 43 84 66 556 444 1531 1177 1709 1284 31 19 57
37 57 41 0 13 -151 308 -160 314 -8 5 -69 -25 -225 -110 -33 -18 -96 -52 -140
-75 -83 -44 -195 -104 -280 -150 -27 -15 -79 -43 -115 -63 -666 -360 -1318
-725 -1550 -867 -8 -5 -41 -25 -74 -45 l-59 -36 7 58 c10 97 21 161 55 338 11
55 22 113 25 129 3 16 10 52 16 80 6 28 12 60 14 71 5 20 27 119 53 235 14 64
19 85 27 125 11 54 130 528 166 660 50 181 115 393 141 452 23 55 17 55 -14 1z"/>
<path d="M12135 11469 c-16 -6 -37 -11 -45 -13 -22 -6 -267 -74 -325 -91 -27
-8 -124 -35 -215 -61 -91 -25 -168 -48 -171 -50 -8 -5 54 -224 64 -224 4 0 56
29 115 65 59 36 114 70 122 75 8 5 98 59 200 121 318 194 328 201 255 178z"/>
<path d="M2084 7147 c-157 -41 -255 -168 -256 -333 -2 -179 82 -270 347 -376
103 -42 178 -97 196 -146 24 -62 5 -150 -41 -193 -50 -48 -137 -67 -206 -43
-72 24 -117 91 -130 194 -6 44 -16 50 -90 50 -77 0 -86 -10 -79 -84 19 -195
149 -322 338 -331 231 -10 403 150 391 363 -6 126 -47 196 -154 268 -42 28
-132 74 -146 74 -21 0 -175 84 -203 112 -39 38 -51 65 -51 118 0 103 68 170
179 175 63 3 109 -12 146 -49 30 -30 55 -94 55 -142 0 -42 17 -51 93 -49 67 2
80 12 79 56 -3 101 -46 204 -108 259 -86 75 -238 108 -360 77z"/>
<path d="M6248 7145 c-146 -40 -243 -160 -251 -313 -6 -95 23 -177 85 -243 47
-50 106 -86 223 -134 166 -69 228 -118 243 -190 23 -112 -53 -210 -170 -219
-112 -8 -196 63 -211 179 -10 75 -11 76 -90 73 -90 -4 -96 -12 -79 -108 28
-162 129 -271 277 -299 180 -34 350 47 422 199 21 45 26 70 27 140 0 72 -4 94
-26 140 -49 106 -112 153 -308 235 -94 39 -165 84 -194 122 -24 33 -32 109
-16 157 24 73 102 118 193 111 31 -2 68 -10 84 -18 51 -27 93 -105 93 -174 0
-26 5 -36 22 -42 23 -8 136 -6 145 2 6 7 5 85 -1 116 -27 124 -106 220 -214
259 -51 19 -197 23 -254 7z"/>
<path d="M7739 7138 c-10 -4 -19 -15 -20 -25 -6 -101 -3 -1182 3 -1195 7 -15
22 -18 78 -18 40 0 72 5 76 11 11 18 7 1210 -4 1221 -11 11 -106 16 -133 6z"/>
<path d="M12525 7140 l-40 -5 -3 -595 c-1 -327 0 -605 3 -618 l6 -23 193 1
c106 1 213 6 237 11 53 12 144 52 165 73 8 9 23 21 33 28 30 22 98 130 120
193 12 33 27 92 35 131 15 80 18 285 5 342 -4 20 -10 51 -13 67 -9 51 -43 142
-70 187 -69 115 -182 189 -308 204 -69 8 -311 10 -363 4z m369 -170 c144 -33
220 -189 219 -450 0 -238 -54 -369 -177 -433 -32 -16 -65 -21 -150 -25 -97 -4
-111 -3 -123 14 -17 23 -19 853 -3 885 9 17 22 19 103 19 51 0 110 -5 131 -10z"/>
<path d="M9830 7123 c-27 -11 -61 -41 -96 -87 -48 -63 -45 -90 12 -119 l31
-16 41 45 c28 29 51 44 67 44 14 0 59 -23 100 -52 66 -46 82 -53 129 -55 37
-1 62 4 83 17 36 21 98 95 112 133 10 25 8 29 -29 52 -35 22 -70 25 -70 6 0
-17 -65 -71 -85 -71 -13 0 -45 16 -71 36 -83 64 -167 89 -224 67z"/>
<path d="M13482 7106 c-49 -14 -76 -57 -69 -112 6 -53 27 -80 73 -93 93 -26
164 52 134 144 -18 55 -75 80 -138 61z"/>
<path d="M16507 7109 c-50 -8 -77 -36 -84 -85 -10 -76 35 -129 107 -127 71 2
112 47 106 117 -7 72 -56 108 -129 95z"/>
<path d="M14635 7086 c-27 -22 -30 -30 -30 -80 0 -74 29 -106 98 -108 60 -1
93 21 108 72 15 49 -4 108 -41 127 -41 21 -101 16 -135 -11z"/>
<path d="M15072 6983 c-5 -10 -9 -53 -8 -97 1 -46 -3 -85 -10 -94 -8 -11 -30
-16 -74 -17 -35 -2 -65 -8 -69 -14 -6 -10 -7 -71 -2 -118 1 -9 21 -13 64 -13
34 0 68 -4 76 -9 12 -8 15 -57 17 -278 2 -284 4 -304 34 -363 35 -68 101 -99
201 -95 86 3 209 51 209 81 0 18 -39 97 -53 106 -5 3 -28 -2 -51 -11 -100 -43
-149 -34 -166 28 -15 53 -13 514 2 529 8 8 48 12 115 12 87 0 104 3 111 18 10
19 9 108 -1 118 -4 4 -53 7 -109 8 -57 1 -109 5 -115 9 -9 6 -13 37 -13 101 0
58 -4 96 -12 104 -7 7 -39 12 -75 12 -49 0 -64 -4 -71 -17z"/>
<path d="M2905 6773 c-157 -56 -225 -198 -220 -455 7 -312 114 -436 375 -432
217 3 331 150 333 429 3 249 -54 380 -193 447 -63 30 -223 36 -295 11z m218
-148 c75 -36 107 -131 103 -309 -2 -114 -4 -128 -32 -182 -37 -73 -68 -96
-139 -102 -101 -8 -164 39 -190 143 -14 61 -16 72 -15 165 0 106 19 197 52
242 43 61 143 80 221 43z"/>
<path d="M3850 6777 c-19 -7 -55 -26 -78 -41 -47 -30 -72 -28 -72 3 0 11 -8
24 -17 29 -21 10 -120 9 -130 -2 -10 -10 -11 -827 -1 -848 7 -15 22 -18 78
-18 38 0 71 4 74 8 3 5 6 149 7 321 2 353 -2 336 85 387 50 29 109 35 147 15
48 -26 51 -44 54 -385 1 -175 4 -325 7 -332 7 -19 141 -20 153 -1 4 6 8 153 8
326 l0 314 39 33 c65 57 150 73 202 39 38 -25 44 -76 44 -393 0 -165 3 -307 6
-316 9 -24 140 -23 152 2 5 9 8 170 8 357 l-2 340 -27 55 c-18 36 -42 66 -70
85 -37 26 -51 30 -120 32 -84 2 -152 -19 -226 -72 l-35 -24 -39 35 c-21 20
-52 41 -69 48 -40 17 -135 18 -178 3z"/>
<path d="M5031 6779 c-59 -11 -176 -56 -202 -78 l-20 -16 19 -50 c25 -64 42
-75 84 -52 146 77 292 75 333 -3 19 -37 27 -136 11 -149 -6 -5 -65 -11 -131
-14 -68 -3 -142 -12 -170 -21 -110 -36 -169 -107 -181 -218 -12 -114 33 -212
123 -265 42 -24 58 -28 125 -27 69 1 87 5 152 38 41 20 78 36 83 36 5 0 14
-14 20 -30 12 -31 12 -31 80 -28 l68 3 0 340 0 340 -31 66 c-35 73 -69 104
-141 125 -51 15 -153 17 -222 3z m231 -511 c3 -7 4 -40 3 -74 -2 -75 -21 -105
-93 -140 -129 -65 -232 -21 -232 100 0 53 34 101 83 115 51 15 234 13 239 -1z"/>
<path d="M7090 6777 c-156 -44 -228 -171 -235 -412 -8 -264 67 -418 227 -466
101 -31 252 -14 333 38 97 61 148 198 149 398 1 231 -59 364 -194 427 -56 26
-211 35 -280 15z m209 -155 c71 -37 107 -158 97 -329 -11 -188 -65 -263 -192
-263 -92 0 -153 60 -174 171 -12 62 -14 195 -5 254 9 52 42 129 65 150 49 44
141 52 209 17z"/>
<path d="M9111 6771 c-99 -34 -157 -99 -193 -214 -19 -61 -23 -95 -22 -217 0
-192 29 -293 106 -370 38 -38 121 -80 160 -80 27 0 27 0 12 -35 -22 -53 -9
-81 52 -122 57 -38 68 -65 35 -82 -23 -13 -67 -5 -100 18 -37 25 -50 21 -75
-21 -26 -46 -19 -61 46 -95 125 -65 278 2 278 122 0 53 -29 98 -84 130 -25 15
-46 33 -46 40 0 28 13 45 34 46 35 0 101 32 140 67 43 37 81 116 91 184 9 63
-5 69 -137 59 -11 -1 -23 -19 -34 -56 -24 -76 -59 -107 -126 -112 -75 -6 -115
18 -150 88 -42 84 -53 260 -24 371 17 68 27 86 58 114 81 75 209 37 240 -70
17 -62 24 -66 93 -66 81 0 91 11 76 80 -26 122 -98 203 -203 228 -68 17 -165
14 -227 -7z"/>
<path d="M9887 6776 c-69 -19 -127 -64 -165 -126 -54 -91 -72 -181 -67 -350 9
-292 130 -426 374 -415 229 10 333 151 335 450 1 229 -61 366 -194 427 -57 27
-212 34 -283 14z m212 -154 c71 -37 107 -160 98 -333 -11 -182 -68 -259 -193
-259 -68 0 -119 32 -149 94 -49 105 -49 326 1 432 40 84 150 114 243 66z"/>
<path d="M10735 6781 c-103 -27 -172 -91 -215 -200 -27 -71 -34 -114 -34 -236
-1 -189 28 -286 111 -369 105 -106 279 -121 450 -38 77 37 87 55 61 110 -12
24 -27 46 -35 49 -7 3 -40 -6 -71 -20 -32 -13 -83 -30 -115 -37 -49 -11 -62
-11 -100 4 -24 9 -56 30 -72 46 -44 46 -76 165 -46 171 3 1 109 3 234 3 187 2
230 5 238 17 12 19 8 170 -7 239 -26 124 -81 207 -161 245 -41 20 -188 29
-238 16z m163 -155 c18 -9 39 -34 51 -60 22 -43 33 -138 19 -152 -5 -4 -73 -8
-153 -8 -119 -1 -148 2 -155 14 -25 39 25 176 73 202 54 28 114 30 165 4z"/>
<path d="M11445 6770 c-111 -43 -169 -126 -168 -240 1 -100 40 -162 132 -210
12 -6 62 -23 110 -37 154 -45 183 -64 195 -127 12 -68 -52 -126 -138 -126 -77
0 -124 39 -141 118 -5 23 -12 32 -28 33 -42 3 -121 -2 -130 -8 -12 -7 -2 -91
16 -135 22 -54 90 -114 150 -134 82 -28 208 -25 278 8 112 51 165 135 160 255
-3 91 -54 162 -145 203 -22 11 -87 33 -143 50 -109 32 -153 66 -153 115 0 90
132 143 217 88 26 -17 58 -77 49 -91 -12 -20 15 -35 65 -35 103 0 99 -2 99 44
0 96 -46 171 -134 216 -69 36 -214 42 -291 13z"/>
<path d="M13937 6776 c-58 -21 -103 -61 -128 -113 -24 -47 -24 -54 -24 -334
l0 -285 28 -43 c38 -57 69 -83 124 -102 72 -26 156 -17 247 25 85 39 91 37 87
-34 -4 -69 -10 -99 -33 -152 -52 -121 -158 -149 -298 -78 -84 42 -96 40 -125
-22 -16 -35 -21 -57 -15 -68 9 -18 106 -65 176 -86 57 -17 174 -15 230 5 58
20 143 95 172 153 55 109 55 107 59 626 3 313 1 487 -6 495 -16 20 -123 14
-136 -7 -28 -48 -26 -48 -105 -9 -61 31 -88 38 -145 40 -42 2 -85 -2 -108 -11z
m198 -142 c43 -9 113 -51 127 -77 17 -32 16 -408 -1 -441 -27 -50 -159 -99
-223 -83 -30 8 -61 34 -78 67 -15 28 -22 379 -9 439 11 48 39 83 80 96 33 12
42 12 104 -1z"/>
<path d="M15890 6787 c-3 -3 -24 -7 -47 -11 -78 -10 -229 -83 -216 -103 2 -2
14 -26 28 -53 27 -53 45 -61 80 -37 35 24 138 53 197 56 71 3 114 -18 134 -66
19 -45 25 -130 10 -142 -6 -5 -65 -11 -131 -14 -66 -3 -143 -12 -170 -21 -70
-21 -129 -68 -155 -121 -25 -52 -35 -164 -18 -217 17 -55 61 -111 113 -143 44
-27 56 -30 127 -29 69 1 88 6 152 38 41 20 78 36 83 36 5 0 14 -14 20 -30 12
-31 12 -31 80 -28 l68 3 0 325 c0 179 -3 339 -7 357 -9 48 -58 132 -89 154
-44 31 -99 46 -179 48 -42 1 -78 0 -80 -2z m192 -519 c3 -7 4 -40 3 -73 -1
-64 -22 -110 -56 -120 -10 -4 -19 -10 -19 -14 0 -8 -52 -28 -94 -35 -44 -8
-105 9 -129 35 -18 19 -22 36 -22 85 0 68 13 91 68 118 41 20 242 23 249 4z"/>
<path d="M16990 6787 c-3 -3 -17 -8 -30 -10 -43 -9 -64 -19 -106 -53 -87 -70
-115 -214 -61 -307 42 -71 87 -97 242 -142 138 -40 176 -73 169 -144 -8 -66
-68 -106 -151 -99 -72 6 -105 32 -120 93 -7 26 -14 50 -17 52 -7 8 -133 6
-145 -1 -16 -10 -5 -102 19 -152 77 -159 372 -190 508 -55 55 56 67 87 67 183
0 80 -2 89 -30 129 -42 59 -100 92 -235 133 -92 28 -120 41 -142 65 -54 60
-24 142 58 159 101 22 164 -13 179 -98 3 -19 8 -36 11 -39 2 -2 34 -5 70 -6
89 -2 95 6 79 90 -15 81 -50 128 -125 169 -45 24 -68 30 -144 34 -50 2 -93 2
-96 -1z"/>
<path d="M8109 6772 c-15 -2 -29 -11 -31 -20 -9 -43 0 -660 10 -698 39 -137
181 -202 335 -154 34 11 76 29 92 40 40 26 51 25 67 -7 12 -25 19 -28 71 -31
32 -2 64 2 72 8 10 8 12 99 12 424 0 228 -3 420 -7 426 -11 17 -129 19 -146 2
-11 -11 -14 -73 -14 -324 l0 -311 -35 -32 c-38 -36 -110 -65 -162 -65 -44 0
-85 22 -109 57 -18 26 -19 52 -21 347 -1 207 -5 322 -12 329 -10 10 -72 15
-122 9z"/>
<path d="M13447 6761 c-13 -16 -18 -807 -5 -841 6 -17 17 -20 77 -20 42 0 73
5 77 11 12 21 8 839 -5 852 -17 17 -130 15 -144 -2z"/>
<path d="M14638 6769 c-14 -9 -19 -823 -5 -852 7 -15 19 -17 80 -15 l72 3 3
424 c1 268 -1 428 -8 435 -11 11 -125 15 -142 5z"/>
<path d="M16478 6772 c-18 -2 -28 -10 -29 -20 -1 -9 -2 -201 -2 -425 -2 -300
1 -411 10 -418 6 -6 42 -9 80 -7 l68 3 3 424 c1 243 -2 429 -7 434 -9 9 -78
15 -123 9z"/>
</g>
</svg>
